<?xml version="1.0" encoding="UTF-8" standalone="no"?>
<!DOCTYPE svg PUBLIC "-//W3C//DTD SVG 1.1//EN" "http://www.w3.org/Graphics/SVG/1.1/DTD/svg11.dtd">
<svg width="100%" height="100%" viewBox="0 0 1965 1548" version="1.1" xmlns="http://www.w3.org/2000/svg" xmlns:xlink="http://www.w3.org/1999/xlink" xml:space="preserve" xmlns:serif="http://www.serif.com/" style="fill-rule:evenodd;clip-rule:evenodd;stroke-linejoin:round;stroke-miterlimit:2;">
    <g transform="matrix(1,0,0,1,-225.599,-724.18)">
        <g transform="matrix(-0.909699,1.12105e-16,-1.22876e-16,-1.00506,2571.06,2722.14)">
            <path d="M1490.03,770.739C1490.03,770.739 1524.77,944.737 1581.75,1131.18C1623.21,1266.85 1678.23,1409.76 1713.21,1496.36C1807.13,1728.83 1957.33,1987.9 1957.33,1987.9L1036.17,1987.9C1036.17,1987.9 1122.98,1838.67 1203.57,1660.88C1226.29,1610.75 1336.21,1357.74 1380.23,1201.47C1459.42,920.368 1490.03,770.739 1490.03,770.739Z" style="fill:rgb(0,128,65);"/>
        </g>
        <g transform="matrix(-0.909699,1.12105e-16,-1.22876e-16,-1.00506,2588.67,2886.63)">
            <path d="M1490.03,770.739C1490.03,770.739 1477.28,1102.94 1327.99,1328.41C1118.17,1645.27 834.46,1908.78 834.46,1908.78L602.49,1653.18C602.49,1653.18 954.414,1468.92 1182.32,1223.03C1330.71,1062.93 1490.03,770.739 1490.03,770.739Z" style="fill:rgb(210,22,45);"/>
        </g>
        <g transform="matrix(0.909699,1.12105e-16,1.22876e-16,-1.00506,-158.988,2886.63)">
            <path d="M1490.03,770.739C1490.03,770.739 1477.28,1102.94 1327.99,1328.41C1118.17,1645.27 834.46,1908.78 834.46,1908.78L602.49,1653.18C602.49,1653.18 954.414,1468.92 1182.32,1223.03C1330.71,1062.93 1490.03,770.739 1490.03,770.739Z" style="fill:rgb(255,215,6);"/>
        </g>
        <g transform="matrix(0.909699,1.12105e-16,1.22876e-16,-1.00506,-353.069,3232.52)">
            <path d="M1715.27,956.355C1715.27,956.355 1695.81,1084.68 1546.51,1310.15C1336.69,1627.01 765.804,1942.31 765.804,1942.31L636.109,1653.18C636.109,1653.18 1045.94,1518.32 1330.24,1326.49C1508.89,1205.95 1715.27,956.355 1715.27,956.355Z" style="fill:white;"/>
        </g>
        <g transform="matrix(-0.909699,1.12105e-16,-1.22876e-16,-1.00506,2768.7,3237.64)">
            <path d="M1699.76,964.013C1699.76,964.013 1691.58,1081.49 1542.28,1306.96C1332.46,1623.82 745.075,1942.82 745.075,1942.82L636.109,1653.18C636.109,1653.18 1045.94,1518.32 1330.24,1326.49C1508.89,1205.95 1699.76,964.013 1699.76,964.013Z" style="fill:rgb(0,56,184);"/>
        </g>
    </g>
</svg>
